<?xml version="1.0" standalone="no"?>
<!DOCTYPE svg PUBLIC "-//W3C//DTD SVG 20010904//EN"
 "http://www.w3.org/TR/2001/REC-SVG-20010904/DTD/svg10.dtd">
<svg version="1.0" xmlns="http://www.w3.org/2000/svg"
 width="926.000000pt" height="926.000000pt" viewBox="0 0 926.000000 926.000000"
 preserveAspectRatio="xMidYMid meet">
<metadata>
Created by potrace 1.11, written by Peter Selinger 2001-2013
</metadata>
<g transform="translate(0.000000,926.000000) scale(0.100000,-0.100000)"
fill="#000000" stroke="none">
<path d="M0 4630 l0 -4630 2910 0 c1601 0 2910 4 2910 8 0 4 18 19 40 32 27
17 40 32 40 48 0 14 6 22 18 22 16 0 44 39 63 88 7 18 6 22 -5 20 -17 -4 -19
1 -12 25 19 57 16 54 30 35 19 -26 24 -22 24 15 0 40 18 87 33 87 7 0 9 12 5
35 -7 33 -5 35 21 35 39 0 51 10 55 45 2 19 11 34 28 42 24 12 60 65 60 90 0
6 9 15 21 18 15 5 19 13 16 27 -4 14 2 24 24 36 16 10 29 22 29 27 0 10 -90
55 -110 55 -5 0 -10 7 -10 16 0 21 79 14 92 -9 13 -24 31 -21 56 8 12 14 26
25 32 25 5 0 10 7 10 16 0 9 8 28 19 42 10 15 20 36 22 47 3 11 19 27 37 35
37 18 72 60 50 61 -7 0 -3 4 10 9 27 12 29 30 2 30 -30 0 -35 -3 -33 -22 2
-10 -2 -18 -8 -18 -5 0 -8 -4 -4 -9 3 -5 1 -12 -5 -16 -5 -3 -10 -1 -10 4 0 6
-6 11 -13 11 -8 0 -22 9 -32 20 -18 20 -17 20 9 20 29 0 45 25 27 43 -6 6 -11
22 -11 36 0 22 1 23 18 8 9 -8 29 -19 45 -22 15 -4 27 -11 27 -15 0 -4 23 -16
50 -26 58 -21 67 -44 16 -44 -40 0 -52 -26 -30 -68 8 -15 14 -40 14 -55 0 -16
9 -63 19 -105 10 -43 22 -99 25 -127 7 -58 24 -132 67 -305 18 -69 35 -143 40
-165 28 -142 60 -175 172 -175 48 0 80 -6 109 -20 41 -20 62 -20 1145 -20
l1103 0 0 4630 0 4630 -4630 0 -4630 0 0 -4630z m3497 4298 c6 -5 9 -16 6 -24
-5 -14 6 -18 40 -15 9 1 17 -4 17 -12 0 -8 7 -17 15 -21 13 -4 14 -2 5 14 -9
16 -7 20 7 21 10 1 22 1 27 0 4 -1 14 3 21 9 8 6 22 10 32 9 10 -1 25 1 33 4
39 16 70 15 95 -5 15 -11 41 -22 58 -23 18 -2 35 -3 40 -4 4 -1 7 -10 7 -21 0
-11 2 -20 4 -20 2 0 13 -3 23 -6 14 -5 15 -4 4 4 -12 9 -10 12 12 17 38 10 72
-1 105 -33 24 -24 39 -29 86 -31 43 -2 56 1 56 12 0 8 11 17 25 19 14 3 25 2
25 -3 0 -4 10 -9 22 -11 27 -4 35 -25 11 -30 -10 -3 1 -4 24 -4 23 0 47 -4 53
-10 11 -11 27 -63 35 -118 7 -44 45 -79 45 -41 0 8 -5 15 -11 15 -6 0 -9 10
-7 23 2 16 9 22 26 21 23 -1 32 29 12 41 -5 3 -10 17 -10 31 0 33 26 31 59 -4
15 -15 45 -33 68 -40 23 -7 48 -23 57 -37 17 -26 49 -32 76 -15 10 6 22 4 36
-5 19 -12 23 -12 28 0 6 17 71 21 81 5 4 -6 16 -10 27 -8 12 2 23 -3 26 -11 3
-10 0 -12 -12 -8 -19 7 -21 -6 -5 -35 11 -21 12 -21 23 5 l11 27 53 -26 c29
-14 56 -33 59 -42 11 -30 36 -52 60 -52 13 0 26 -7 30 -16 5 -13 7 -13 14 -2
7 10 9 9 9 -3 0 -17 24 -32 34 -22 11 11 6 43 -10 68 -18 27 -12 45 15 45 24
0 107 -93 130 -145 18 -41 72 -95 95 -95 7 0 18 -12 25 -27 8 -16 17 -35 21
-43 4 -8 21 -16 38 -18 24 -2 33 -9 38 -28 3 -13 12 -24 20 -24 9 0 14 -11 14
-31 0 -17 5 -29 11 -27 6 2 11 8 11 13 0 17 20 35 39 35 21 0 39 -28 39 -63 0
-25 22 -52 33 -40 23 22 -10 96 -53 118 -17 9 -30 22 -30 29 0 11 -10 13 -40
9 -22 -3 -40 -2 -40 3 0 5 -13 15 -29 22 -34 15 -47 54 -31 96 5 15 7 38 4 52
-4 14 -2 24 5 24 13 0 51 -36 51 -48 0 -5 10 -14 23 -21 13 -7 27 -27 33 -44
5 -20 16 -32 26 -32 10 0 23 -6 30 -13 6 -6 18 -12 25 -12 7 0 13 -6 13 -14 0
-8 11 -28 25 -44 35 -41 40 -96 14 -146 -18 -35 -19 -41 -5 -54 9 -9 19 -12
23 -8 5 5 2 11 -5 13 -13 5 -7 23 9 23 5 0 9 -19 9 -42 0 -52 7 -64 51 -87 37
-20 64 -71 42 -78 -7 -3 -13 -11 -13 -19 0 -8 -4 -14 -10 -14 -5 0 -7 12 -4
28 6 32 -25 68 -51 59 -21 -9 -19 -44 5 -64 12 -11 20 -30 20 -50 0 -35 -17
-45 -26 -15 -3 9 -13 31 -21 48 -11 21 -14 45 -10 73 4 30 2 41 -8 41 -7 0
-15 9 -18 20 -7 28 -25 25 -33 -6 -8 -33 -38 -28 -42 7 -2 16 -13 32 -28 39
-13 7 -24 17 -24 22 0 4 -39 8 -86 8 -64 0 -85 3 -82 13 3 6 22 14 44 18 l39
5 -27 14 c-16 7 -28 16 -28 20 0 4 -11 5 -25 2 -21 -4 -26 0 -31 27 -4 17 -8
31 -9 31 -2 0 -10 -3 -19 -6 -21 -8 -20 -29 1 -65 15 -24 15 -31 5 -38 -11 -7
-10 -17 8 -51 22 -43 21 -70 -3 -70 -9 0 -12 9 -9 30 2 17 0 30 -6 30 -5 0
-32 23 -58 50 -26 28 -53 50 -59 50 -18 0 -41 31 -49 65 -7 26 -9 27 -17 12
-16 -27 -49 -22 -49 8 0 22 -4 25 -33 25 -18 0 -38 5 -45 12 -17 17 -29 0 -14
-20 20 -28 36 -62 30 -67 -2 -3 -34 4 -71 14 -66 18 -129 62 -108 75 16 10 1
36 -21 36 -17 0 -19 -5 -14 -25 5 -18 2 -25 -8 -25 -29 0 -25 -19 10 -52 20
-18 45 -41 55 -50 11 -10 24 -18 30 -18 5 0 8 -4 5 -9 -7 -11 -74 7 -97 26 -8
7 -22 13 -31 13 -8 0 -27 11 -41 24 -14 13 -36 26 -50 30 -14 3 -33 9 -43 13
-14 5 -16 2 -11 -19 4 -15 1 -33 -9 -46 -17 -24 -36 -20 -32 6 2 13 -4 16 -30
14 -18 -2 -38 1 -45 6 -19 14 -59 22 -85 15 -18 -4 -22 -11 -19 -25 10 -36 -2
-49 -24 -27 -23 23 -48 27 -29 4 18 -22 5 -48 -17 -36 -34 18 -88 39 -116 46
-22 6 -27 12 -22 29 2 11 2 15 -1 9 -11 -24 -34 -13 -40 17 -4 17 -12 30 -19
30 -7 0 -15 9 -18 20 -7 26 -37 26 -37 0 0 -11 9 -28 20 -37 11 -10 20 -23 20
-31 0 -7 7 -23 16 -36 20 -31 9 -37 -54 -29 -37 4 -61 14 -84 34 -34 31 -65
37 -74 16 -6 -18 -56 -15 -62 3 -11 32 -51 34 -98 3 -12 -7 -29 -11 -38 -7 -9
3 -23 1 -30 -5 -9 -8 -33 -10 -68 -6 l-53 6 24 -20 c13 -12 31 -21 41 -21 17
0 47 -26 39 -34 -5 -5 -97 10 -124 20 -11 3 -5 -5 14 -20 19 -14 41 -26 48
-26 7 0 32 -18 55 -39 23 -22 45 -38 50 -35 4 3 8 0 8 -7 0 -7 -8 -9 -20 -5
-11 3 -29 9 -40 12 -11 4 -20 2 -20 -3 0 -6 -21 -7 -51 -3 -38 5 -52 3 -56 -7
-3 -7 -17 -13 -33 -13 -15 0 -41 -7 -59 -16 -22 -11 -36 -13 -44 -6 -15 12
-189 3 -181 -9 3 -5 14 -9 25 -9 10 0 19 -7 19 -15 0 -9 -9 -15 -25 -15 -18 0
-25 -5 -25 -19 0 -28 -26 -47 -45 -31 -38 32 -91 -22 -66 -68 6 -11 7 -22 4
-26 -3 -3 -40 -6 -82 -6 -59 0 -83 -5 -106 -20 -16 -11 -36 -20 -43 -20 -19 0
15 48 39 55 25 8 24 21 -1 28 -16 4 -20 14 -20 46 0 23 5 41 10 41 17 0 11 28
-7 39 -10 5 -24 6 -33 1 -8 -4 -45 -11 -83 -15 -58 -6 -66 -5 -61 8 3 8 17 17
32 20 69 14 89 22 118 44 28 21 33 35 25 75 -3 15 -218 13 -236 -2 -9 -7 -15
-8 -15 -2 0 5 7 15 15 22 24 20 12 22 -24 4 -34 -17 -136 -36 -209 -38 -32 -1
-47 -7 -54 -21 -6 -11 -22 -31 -35 -44 -12 -13 -23 -30 -23 -37 0 -16 -35 -54
-51 -54 -5 0 1 21 15 48 13 26 27 57 31 70 7 25 87 90 122 98 13 4 23 10 23
15 0 5 8 9 18 9 11 0 27 9 38 21 19 21 92 56 107 51 4 -1 28 11 52 28 30 21
52 29 67 25 30 -7 57 10 41 26 -17 17 -108 -7 -140 -37 -14 -13 -42 -27 -62
-30 -20 -4 -47 -14 -60 -22 -22 -15 -23 -14 -20 3 2 11 18 26 34 35 17 8 40
25 51 37 12 12 24 19 27 16 7 -7 87 29 87 39 0 4 -27 8 -60 8 -55 0 -60 -2
-66 -25 -5 -20 -11 -24 -26 -19 -13 4 -24 -1 -33 -12 -11 -16 -16 -17 -38 -5
-14 8 -31 10 -38 5 -7 -4 -29 -10 -49 -14 -25 -4 -36 -11 -38 -25 -2 -11 -11
-31 -22 -45 -24 -32 -40 -18 -33 29 4 26 13 36 39 47 26 11 34 20 34 39 0 29
-3 30 -31 13 -17 -11 -22 -10 -30 5 -14 24 -59 23 -59 -2 0 -10 -7 -21 -15
-25 -8 -3 -15 -12 -15 -19 0 -19 -56 -64 -97 -78 -27 -9 -33 -16 -33 -39 0
-16 -7 -30 -16 -34 -21 -8 -37 2 -30 20 8 22 -41 17 -53 -5 -6 -10 -7 -21 -4
-25 3 -3 -2 -15 -11 -25 -11 -12 -15 -27 -12 -39 5 -15 0 -22 -23 -32 -16 -6
-32 -18 -35 -26 -6 -16 -42 -19 -51 -4 -10 17 -25 1 -25 -27 0 -23 -3 -25 -33
-20 -27 4 -33 2 -34 -14 -1 -10 2 -21 7 -24 15 -9 -1 -35 -20 -35 -11 0 -22
-4 -25 -10 -3 -5 -15 -10 -26 -10 -10 0 -36 -9 -56 -20 -21 -11 -48 -20 -61
-20 -28 0 -99 -40 -132 -75 -17 -18 -34 -25 -62 -25 -22 0 -48 -5 -60 -11 -26
-14 -36 -3 -20 21 15 24 15 40 2 40 -5 0 -10 -7 -10 -15 0 -8 -9 -19 -20 -25
-20 -11 -42 -49 -45 -80 -1 -9 -13 -36 -26 -60 -17 -32 -32 -46 -49 -48 -13
-1 -37 -15 -52 -29 l-28 -27 10 31 c6 16 22 35 35 41 26 12 32 31 15 48 -16
16 1 50 40 79 l35 26 -60 -6 c-33 -4 -66 -8 -72 -11 -7 -2 -13 3 -13 10 0 15
19 22 100 32 64 8 100 28 100 55 0 12 7 19 19 19 19 0 35 23 24 34 -15 15 -66
4 -89 -19 -14 -14 -35 -25 -47 -25 -22 0 -21 1 2 13 34 17 42 43 10 33 -13 -5
-33 -8 -44 -9 -11 -1 -24 -6 -30 -13 -15 -17 -62 -26 -82 -15 -10 5 -26 12
-36 15 -18 6 -18 7 0 39 16 28 26 33 68 37 33 3 49 9 47 18 -1 7 5 15 13 18 8
4 15 14 15 23 0 9 5 22 12 29 9 9 9 12 0 12 -34 0 46 72 83 75 6 0 16 4 23 8
7 5 47 12 90 16 43 5 93 15 112 23 19 9 44 19 55 23 17 5 14 9 -20 21 -50 17
-82 18 -88 2 -3 -10 -9 -10 -26 0 -11 6 -28 12 -37 12 -23 0 -13 20 28 52 30
25 44 29 96 29 34 0 64 5 67 10 4 5 23 10 43 10 32 1 29 3 -22 13 -65 12 -74
23 -57 64 14 34 91 77 120 67 23 -7 28 4 10 22 -7 7 -9 19 -6 27 9 22 84 21
108 0 10 -9 23 -13 29 -9 8 5 7 10 -3 18 -8 7 -17 27 -19 45 -4 28 -1 36 19
45 18 8 27 7 41 -6 13 -12 28 -15 49 -11 16 3 47 1 69 -6 94 -28 102 -29 120
-9 16 18 15 18 -15 9 -23 -6 -33 -5 -38 5 -5 7 -17 14 -27 16 -11 2 -21 9 -23
15 -4 13 40 24 104 27 23 2 48 8 55 15 22 22 41 15 34 -15 -10 -36 5 -43 90
-43 55 0 73 4 78 15 5 14 9 14 43 0 21 -9 40 -12 46 -6 5 5 -2 11 -18 15 -18
5 -25 12 -23 24 3 14 13 16 61 14 52 -4 57 -2 57 17 0 20 -16 26 -60 23 -11
-1 -16 8 -15 30 0 40 13 44 48 14 23 -20 39 -24 92 -25 43 0 67 4 75 14 10 11
7 15 -13 20 -14 4 -33 3 -44 -3 -23 -11 -58 -1 -58 17 0 19 30 29 86 30 25 1
50 6 56 12 12 12 51 13 136 5 65 -7 74 5 22 30 -26 12 -35 23 -35 40 0 24 14
32 24 15 3 -5 19 -14 36 -19 27 -10 30 -9 30 9 0 14 -7 19 -25 19 -27 0 -32
16 -11 43 17 21 59 22 91 1 14 -9 25 -13 25 -9 0 3 8 -1 17 -10 20 -21 87 -15
111 9 21 21 6 34 -19 17 -27 -16 -32 -10 -20 22 14 37 43 50 69 31 12 -8 30
-14 39 -12 14 2 17 -3 15 -19 -2 -17 1 -21 12 -17 17 7 19 18 7 49 -5 11 -4
25 1 32 14 18 44 0 63 -37 22 -43 19 -53 -15 -45 -31 7 -39 -2 -18 -23 17 -17
31 -15 57 7 17 15 36 19 77 18 50 -1 54 -3 54 -25 0 -21 4 -23 37 -20 35 3 61
28 29 28 -9 0 -16 6 -16 13 0 18 -90 61 -122 58 -20 -2 -28 2 -28 14 0 23 23
28 67 16 33 -10 40 -9 53 8 15 20 41 20 67 -1z m1601 -381 c5 -23 -10 -21 -26
4 -12 18 -11 20 5 17 10 -2 19 -11 21 -21z m-2803 -37 c17 -7 15 -9 -12 -9
-17 -1 -35 4 -38 9 -7 12 22 12 50 0z m3129 -66 c25 -10 19 -34 -8 -34 -29 0
-44 19 -25 31 17 11 14 10 33 3z m16 -84 c0 -5 -5 -10 -11 -10 -5 0 -7 5 -4
10 3 6 8 10 11 10 2 0 4 -4 4 -10z m-2920 -215 c0 -8 -12 -22 -27 -32 -16 -10
-34 -25 -40 -34 -14 -19 -100 -55 -109 -46 -9 9 20 47 36 47 18 0 52 24 83 58
23 25 57 30 57 7z m-272 -37 c-2 -15 -11 -24 -26 -26 -20 -3 -21 -1 -11 22 15
33 42 35 37 4z m2222 -58 c0 -5 -5 -10 -11 -10 -5 0 -7 5 -4 10 3 6 8 10 11
10 2 0 4 -4 4 -10z m66 -25 c10 -25 -7 -40 -23 -20 -7 11 -13 22 -13 27 0 14
30 9 36 -7z m-722 -11 c9 -3 14 -10 11 -15 -7 -10 -35 0 -35 12 0 11 3 11 24
3z m-1757 -26 c-3 -8 -6 -5 -6 6 -1 11 2 17 5 13 3 -3 4 -12 1 -19z m297 -6
c-7 -4 -13 -16 -15 -27 -3 -14 -16 -22 -47 -29 -23 -5 -42 -13 -42 -18 0 -5 4
-7 9 -4 12 8 34 -21 26 -34 -11 -19 -45 -11 -45 10 0 15 -7 20 -26 20 -35 0
-26 24 10 28 16 2 46 17 69 33 22 16 47 29 56 29 10 0 12 -3 5 -8z m1539 1 c4
-3 2 -12 -4 -19 -12 -15 -49 -2 -49 16 0 11 43 14 53 3z m1107 -30 c0 -19 -14
-16 -45 11 l-28 24 37 -12 c20 -6 36 -17 36 -23z m-2850 13 c0 -8 -4 -17 -9
-21 -12 -7 -24 12 -16 25 9 15 25 12 25 -4z m3640 -11 c0 -8 -4 -15 -10 -15
-5 0 -10 7 -10 15 0 8 5 15 10 15 6 0 10 -7 10 -15z m-3111 -7 c15 -9 26 -9
47 0 28 14 40 10 29 -7 -8 -14 -72 -41 -96 -41 -19 0 -35 33 -24 50 8 13 21
13 44 -2z m1316 -8 c18 -19 17 -20 -2 -20 -11 0 -28 9 -38 20 -18 19 -17 20 2
20 11 0 28 -9 38 -20z m1865 0 c0 -11 -7 -20 -15 -20 -13 0 -14 4 -5 20 6 11
13 20 15 20 3 0 5 -9 5 -20z m-3260 -10 c0 -5 -5 -10 -11 -10 -5 0 -7 5 -4 10
3 6 8 10 11 10 2 0 4 -4 4 -10z m1725 -37 c32 -10 37 -26 10 -31 -10 -2 -30 9
-46 24 -31 30 -41 58 -11 32 9 -9 31 -20 47 -25z m-1993 20 c-6 -2 -10 -9 -6
-14 3 -5 -2 -9 -12 -9 -13 0 -14 3 -4 15 7 8 18 15 24 14 7 0 6 -2 -2 -6z
m-162 -23 c0 -5 -2 -10 -4 -10 -3 0 -8 5 -11 10 -3 6 -1 10 4 10 6 0 11 -4 11
-10z m410 -10 c0 -5 -5 -10 -11 -10 -5 0 -7 5 -4 10 3 6 8 10 11 10 2 0 4 -4
4 -10z m1105 -11 c0 -7 -8 -15 -17 -17 -18 -3 -25 18 -11 32 10 10 28 1 28
-15z m-909 -4 c-19 -14 -36 -12 -36 6 0 5 12 9 28 9 26 -1 26 -1 8 -15z m-328
-4 c17 -10 -1 -26 -40 -36 -42 -11 -54 4 -21 25 32 21 43 23 61 11z m2912 -6
c0 -8 -7 -15 -16 -15 -14 0 -14 3 -4 15 7 8 14 15 16 15 2 0 4 -7 4 -15z m588
-19 c3 -20 0 -27 -10 -24 -7 3 -14 17 -16 32 -3 20 0 27 10 24 7 -3 14 -17 16
-32z m-3728 15 c0 -9 -34 -21 -60 -21 -11 1 -10 4 4 15 22 16 56 20 56 6z
m504 -16 c-25 -19 -34 -19 -34 0 0 10 10 15 27 15 26 0 26 -1 7 -15z m2834 -1
c31 -22 27 -34 -8 -24 -39 11 -51 20 -45 31 9 13 28 11 53 -7z m-3448 -9 c0
-10 -10 -15 -34 -15 -21 0 -36 -6 -40 -15 -3 -8 -12 -15 -21 -15 -8 0 -15 -4
-15 -10 0 -5 -6 -10 -14 -10 -8 0 -16 -7 -20 -15 -3 -8 -15 -15 -27 -15 -11 0
-32 -9 -46 -20 -14 -11 -34 -20 -44 -20 -11 0 -19 -6 -19 -13 0 -12 -39 -42
-46 -35 -8 8 47 78 61 78 8 0 15 9 15 20 0 14 7 20 24 20 31 0 86 31 86 49 0
10 3 11 13 3 9 -8 19 -5 37 8 31 24 90 27 90 5z m96 -22 c-4 -9 -1 -20 5 -24
14 -9 3 -29 -17 -29 -17 0 -19 41 -2 58 17 17 21 15 14 -5z m2814 -9 c0 -17
-22 -14 -28 4 -2 7 3 12 12 12 9 0 16 -7 16 -16z m-1690 2 c0 -3 -4 -8 -10
-11 -5 -3 -10 -1 -10 4 0 6 5 11 10 11 6 0 10 -2 10 -4z m2584 -28 c20 -39 20
-48 1 -48 -9 0 -20 12 -25 26 -22 57 -2 75 24 22z m-3454 12 c0 -5 -7 -10 -15
-10 -8 0 -15 5 -15 10 0 6 7 10 15 10 8 0 15 -4 15 -10z m1778 -19 c10 -6 10
-10 -3 -21 -12 -10 -18 -10 -30 0 -8 7 -15 16 -15 21 0 11 31 11 48 0z m122
-1 c0 -5 -2 -10 -4 -10 -3 0 -8 5 -11 10 -3 6 -1 10 4 10 6 0 11 -4 11 -10z
m-1834 -9 c-7 -11 -70 -41 -86 -41 -10 0 -10 3 0 15 7 8 23 15 36 15 12 0 26
5 29 10 3 6 11 10 16 10 6 0 8 -4 5 -9z m1232 -13 c-5 -15 -48 -24 -48 -10 0
14 12 22 33 22 10 0 17 -5 15 -12z m-88 -12 c0 -11 -19 -15 -25 -6 -3 5 1 10
9 10 9 0 16 -2 16 -4z m642 -21 c-6 -42 -11 -48 -27 -35 -16 13 -20 42 -8 54
14 13 38 0 35 -19z m-3128 6 c8 -12 -31 -54 -43 -46 -7 4 -5 15 6 30 19 26 29
30 37 16z m581 -13 c-3 -8 -17 -21 -31 -29 -14 -7 -32 -25 -39 -39 -10 -18
-14 -20 -15 -8 0 33 19 68 39 68 10 0 24 7 31 15 15 18 23 14 15 -7z m1115 13
c0 -4 -19 -11 -42 -14 -24 -3 -67 -14 -96 -23 -42 -14 -51 -21 -47 -35 8 -25
-12 -33 -40 -15 -13 9 -34 16 -46 16 -21 0 -21 1 4 20 14 11 38 20 54 20 15 0
51 9 78 20 51 20 135 27 135 11z m2880 -7 c0 -8 -5 -12 -10 -9 -6 4 -8 11 -5
16 9 14 15 11 15 -7z m-1862 -18 c3 -13 -1 -17 -14 -14 -11 2 -20 11 -22 22
-3 13 1 17 14 14 11 -2 20 -11 22 -22z m1922 8 c0 -8 -4 -12 -10 -9 -5 3 -10
10 -10 16 0 5 5 9 10 9 6 0 10 -7 10 -16z m-4145 -25 c0 -15 -6 -24 -16 -24
-28 0 -127 -56 -159 -89 -23 -23 -33 -28 -39 -18 -7 11 -16 9 -47 -7 -52 -28
-61 -27 -62 9 -1 25 3 30 23 30 12 0 26 7 29 16 5 13 9 14 20 5 10 -8 16 -9
21 -1 3 5 17 10 30 10 12 0 25 6 28 14 3 7 19 16 36 19 17 4 40 16 51 27 11
11 26 20 34 20 8 0 18 5 21 11 11 17 30 4 30 -22z m3108 11 c13 -15 24 -18 49
-13 18 3 37 12 41 20 11 18 37 16 60 -4 14 -14 37 -18 91 -18 70 -1 101 -9 91
-24 -2 -4 25 -6 60 -4 53 3 65 0 65 -12 0 -24 26 -28 62 -11 31 16 34 16 45
-1 7 -9 13 -20 13 -25 0 -4 6 -8 14 -8 8 0 21 -9 28 -19 16 -22 36 -27 62 -16
11 5 21 4 25 -3 3 -6 19 -14 34 -17 15 -4 30 -11 33 -16 3 -5 14 -9 25 -9 10
0 19 -3 19 -7 0 -5 11 -16 25 -25 19 -14 29 -16 50 -8 15 6 31 8 36 4 13 -8
-8 -44 -26 -44 -8 0 -15 -3 -15 -7 0 -15 45 -53 62 -53 11 0 18 -7 18 -19 0
-20 11 -26 65 -35 16 -3 34 -12 40 -19 5 -8 24 -18 40 -24 23 -8 29 -15 28
-34 -3 -20 2 -24 25 -25 15 -1 36 -4 47 -8 13 -5 27 0 41 12 14 14 26 17 35
11 11 -7 11 -9 -3 -9 -14 0 -38 -27 -38 -43 0 -3 15 -10 33 -18 17 -7 44 -21
59 -31 14 -10 35 -18 47 -18 24 0 42 -29 35 -57 -4 -14 6 -31 35 -58 23 -22
41 -45 41 -52 0 -7 6 -13 13 -13 32 0 75 -162 46 -172 -18 -6 33 -97 54 -98
29 0 17 -30 -18 -45 -18 -7 -16 -9 12 -15 18 -4 50 -23 71 -41 39 -35 113
-171 118 -216 4 -35 10 -39 44 -26 23 9 30 8 30 -1 0 -23 -48 -59 -70 -53 -24
6 -26 -6 -4 -28 9 -9 24 -13 35 -10 14 5 23 -3 39 -34 11 -23 17 -41 13 -41
-5 -1 2 -9 15 -20 13 -11 18 -21 12 -25 -14 -9 -13 -48 2 -63 7 -7 20 -12 30
-12 19 0 25 -25 8 -35 -18 -11 -10 -63 15 -93 33 -40 43 -68 43 -128 0 -28 5
-60 11 -72 6 -11 11 -42 11 -69 0 -26 7 -80 16 -118 9 -39 18 -122 20 -186 6
-210 21 -340 48 -424 14 -44 26 -91 26 -105 0 -14 7 -50 16 -80 9 -30 20 -89
25 -130 15 -139 26 -205 43 -255 18 -54 32 -183 46 -422 6 -101 18 -192 36
-270 15 -66 28 -157 30 -208 5 -145 15 -248 28 -285 10 -29 13 -125 6 -260 0
-3 -14 -20 -31 -39 -29 -34 -30 -36 -23 -115 3 -47 1 -115 -6 -161 -13 -83
-14 -103 -8 -172 2 -27 -3 -47 -13 -60 -13 -14 -15 -29 -9 -71 5 -45 3 -58
-13 -78 -10 -14 -21 -44 -24 -67 -3 -23 -12 -55 -20 -70 -8 -15 -16 -45 -19
-65 -5 -42 -25 -104 -36 -112 -4 -3 -10 -30 -13 -60 -7 -64 -49 -157 -73 -164
-9 -2 -44 -7 -77 -11 -67 -8 -80 -18 -59 -50 13 -19 13 -24 -1 -35 -8 -7 -15
-23 -15 -36 0 -13 -9 -28 -20 -34 -11 -6 -20 -17 -20 -24 0 -15 -27 -29 -40
-21 -5 3 -11 1 -15 -5 -4 -6 -10 -8 -15 -5 -5 3 -16 -11 -25 -32 -9 -21 -26
-46 -38 -55 -22 -18 -22 -18 10 -12 18 4 40 3 50 0 16 -7 15 -9 -7 -27 -14
-11 -18 -18 -10 -17 9 2 13 -3 11 -12 -13 -52 -13 -60 3 -60 24 0 19 -28 -6
-36 -14 -4 -25 -1 -33 10 -7 9 -17 16 -24 16 -17 0 -13 19 10 51 21 30 13 37
-22 19 -10 -6 -19 -20 -19 -31 0 -13 -4 -18 -12 -13 -8 5 -9 2 -5 -10 9 -23
-18 -32 -54 -19 -16 6 -31 8 -34 3 -3 -5 0 -10 7 -12 16 -6 2 -38 -17 -38 -8
0 -15 7 -15 15 0 7 -7 18 -16 23 -18 10 -13 42 11 66 12 11 10 15 -11 26 -19
11 -27 11 -36 2 -9 -9 -8 -12 5 -12 26 0 20 -29 -8 -36 -29 -7 -32 -19 -9 -41
11 -11 12 -19 5 -26 -8 -8 -17 -4 -32 12 -20 22 -53 26 -52 6 0 -5 11 -15 24
-22 28 -14 40 -50 27 -77 -6 -11 -6 -34 2 -64 8 -34 8 -52 -1 -74 -9 -23 -9
-34 1 -53 19 -35 7 -55 -35 -55 -25 0 -35 4 -35 16 0 10 -5 14 -15 10 -21 -8
-63 13 -70 36 -4 10 -14 18 -24 18 -12 0 -23 12 -31 33 -6 17 -16 40 -21 49
-5 10 -9 29 -9 43 0 15 -6 25 -14 25 -8 0 -21 3 -30 6 -11 4 -19 -2 -26 -20
-9 -25 -21 -32 -33 -20 -3 3 -1 18 4 32 7 19 7 28 -1 30 -6 2 -25 17 -43 33
-33 31 -91 43 -67 14 7 -8 19 -15 27 -15 8 0 13 -7 11 -18 -2 -12 -17 -19 -53
-24 -28 -4 -59 -9 -70 -10 -14 -2 -21 3 -23 19 -2 12 -15 26 -33 33 -34 15
-33 10 -14 46 17 33 19 54 5 54 -26 0 -47 -102 -24 -121 18 -15 18 -33 0 -48
-12 -10 -15 -7 -20 16 -4 16 -18 42 -32 58 -13 16 -27 40 -31 54 -3 14 -11 29
-17 33 -17 12 -36 9 -36 -5 0 -14 -38 -41 -60 -43 -36 -3 -41 -5 -35 -13 3 -5
7 -35 10 -65 4 -54 3 -56 -20 -56 -27 0 -96 29 -107 45 -5 6 -8 6 -8 -2 0 -6
-12 -25 -26 -42 -14 -17 -23 -35 -20 -40 4 -5 2 -12 -4 -16 -18 -11 -11 67 7
87 17 19 16 20 -6 37 -20 15 -22 23 -16 64 6 38 4 47 -8 47 -8 0 -17 -13 -21
-32 l-7 -33 -19 23 c-19 23 -40 22 -40 0 0 -6 11 -26 25 -44 22 -29 23 -33 9
-45 -13 -11 -19 -10 -32 7 -10 12 -32 31 -49 43 -18 12 -33 30 -33 39 0 20
-34 52 -55 52 -18 0 -55 -70 -55 -105 0 -14 -3 -25 -7 -25 -10 1 -57 77 -52
83 2 3 -3 13 -12 23 -27 31 -27 48 -1 62 32 16 48 2 31 -26 -16 -25 -5 -40 16
-22 8 7 15 27 15 45 0 23 7 37 23 48 19 13 20 18 9 37 -10 17 -10 25 -1 36 8
10 9 18 0 27 -6 8 -8 17 -4 20 3 4 3 7 0 7 -13 0 -39 -76 -38 -113 1 -33 -2
-37 -23 -37 -13 0 -36 -10 -51 -22 -25 -19 -28 -20 -37 -5 -5 10 -16 17 -24
17 -12 0 -13 4 -3 21 17 32 -2 44 -39 25 -17 -9 -39 -16 -49 -16 -29 -1 -95
-85 -91 -117 2 -16 -1 -28 -7 -28 -5 0 -10 7 -10 15 0 8 -8 16 -18 18 -13 3
-16 9 -12 20 4 10 11 32 15 50 8 32 7 33 -18 30 -24 -3 -27 0 -24 24 1 14 -2
29 -8 33 -18 11 -11 24 30 50 46 29 50 30 50 10 0 -8 -9 -19 -20 -25 -28 -15
-25 -45 6 -59 22 -9 25 -16 20 -39 l-6 -27 19 25 c11 14 27 33 36 43 12 14 14
22 6 30 -16 16 -14 70 4 103 8 16 15 37 15 47 0 9 4 17 9 17 17 0 23 -20 11
-35 -13 -16 -21 -80 -13 -112 l5 -23 29 21 c22 16 29 28 29 54 0 38 41 85 72
85 24 0 23 -3 -12 -51 -31 -44 -31 -66 0 -49 27 14 40 42 40 84 0 25 5 36 19
41 11 3 24 18 30 33 10 27 10 27 16 5 10 -30 21 -29 62 7 18 16 39 30 46 30 7
0 35 22 63 49 38 36 55 46 63 38 8 -8 15 -6 28 5 10 8 34 21 53 28 19 7 44 22
56 32 11 10 27 18 36 18 9 0 18 9 21 20 3 13 14 20 30 20 14 0 28 4 32 9 3 5
18 12 34 16 16 3 32 13 35 21 3 8 16 14 28 14 28 0 42 10 51 33 4 10 21 24 37
30 25 9 30 17 30 43 0 18 3 39 6 48 8 21 -22 21 -43 1 -18 -19 -21 -17 -26 16
-4 23 -13 26 -46 18 -20 -5 -25 22 -7 46 11 15 17 17 28 7 17 -13 28 -6 28 17
0 9 9 27 20 41 11 14 20 27 20 30 0 3 -21 5 -47 6 -27 1 -73 9 -103 19 -30 10
-65 18 -77 19 -13 0 -23 5 -23 9 0 4 -26 7 -57 7 -32 -1 -94 3 -137 9 -59 8
-83 8 -93 -1 -11 -9 -31 -4 -91 22 -80 35 -112 56 -112 74 0 12 93 58 155 77
22 6 56 20 75 30 33 17 64 23 265 50 44 5 84 14 90 18 11 9 220 7 335 -4 60
-6 80 -12 102 -32 17 -16 33 -23 45 -19 12 4 28 -2 43 -16 27 -26 56 -44 83
-54 9 -3 17 -13 17 -20 0 -8 6 -14 14 -14 9 0 15 17 18 50 3 33 13 59 26 73
15 16 18 27 12 37 -5 8 -10 37 -10 64 0 42 -2 47 -15 36 -18 -15 -45 -6 -45
15 0 8 -6 15 -12 16 -63 4 -111 -1 -124 -12 -24 -20 -46 -20 -74 -1 -14 9 -50
28 -82 43 -31 15 -60 35 -66 45 -11 19 -82 26 -94 9 -4 -5 -8 3 -8 19 0 28 -1
28 -37 22 -21 -3 -46 -6 -56 -6 -34 0 -16 -44 23 -56 39 -13 49 -34 25 -54
-12 -10 -18 -10 -29 -1 -8 7 -32 14 -53 17 -23 3 -45 13 -57 27 -10 12 -28 22
-40 22 -18 0 -21 6 -20 40 2 101 13 204 24 225 6 12 10 24 7 26 -5 6 -67 -54
-67 -65 0 -5 -4 -11 -9 -13 -5 -1 -11 -12 -13 -23 -2 -12 -13 -22 -28 -25 -13
-3 -30 -16 -36 -28 -6 -13 -17 -29 -23 -35 -6 -6 -11 -28 -11 -50 0 -31 -3
-38 -17 -35 -13 2 -18 16 -21 60 -3 54 -1 60 31 92 40 40 56 91 26 83 -17 -5
-29 11 -29 39 0 20 30 18 46 -3 12 -17 13 -16 14 4 0 12 9 27 20 33 35 19 13
28 -57 23 l-68 -5 -14 31 c-17 41 -35 35 -41 -16 -7 -49 -3 -64 16 -56 8 3 14
0 14 -6 0 -6 -5 -11 -10 -11 -14 0 -4 -52 13 -65 14 -11 11 -43 -8 -65 -6 -8
-15 -23 -18 -32 -7 -18 -49 -24 -93 -12 -28 8 -56 57 -48 87 3 14 1 28 -5 32
-7 3 -8 17 -4 33 6 24 5 26 -10 14 -9 -8 -21 -11 -27 -7 -15 9 -12 35 4 35 8
0 17 12 21 28 3 15 13 35 22 44 8 9 12 21 9 26 -3 5 1 18 9 28 13 16 16 17 25
4 13 -20 13 -50 -2 -50 -6 0 -9 -2 -7 -5 11 -11 68 20 78 42 10 23 12 23 36 7
14 -9 27 -15 29 -13 1 2 10 21 20 42 17 37 129 157 146 157 5 0 16 8 26 17 13
14 34 18 86 18 75 0 93 12 93 65 0 17 8 29 27 37 24 12 26 18 24 67 -3 73 -29
120 -80 143 -45 19 -57 29 -72 55 -9 17 -12 17 -49 -2 -45 -23 -73 -27 -58 -7
6 6 13 22 16 35 4 18 0 25 -21 33 -43 17 -137 63 -142 71 -8 10 -89 38 -110
38 -9 0 -42 18 -73 40 -30 22 -60 40 -65 40 -5 0 -22 11 -38 25 -18 16 -41 25
-62 25 -38 0 -92 33 -92 56 0 8 -12 20 -26 26 -19 9 -24 18 -21 35 3 16 0 22
-12 21 -47 -4 -61 2 -61 26 0 17 7 27 22 32 12 4 31 18 41 31 11 14 26 22 34
19 11 -4 13 -1 8 14 -4 12 -2 20 5 20 6 0 19 19 30 43 15 36 17 51 8 112 -6
43 -18 78 -29 91 -11 11 -19 32 -19 46 0 15 -7 33 -15 42 -8 8 -15 19 -15 24
0 6 -6 12 -13 15 -24 9 -63 221 -59 320 1 21 -3 49 -8 62 -6 15 -6 34 0 49 5
13 11 70 14 126 3 57 11 121 17 143 13 48 -6 128 -33 135 -9 2 -14 10 -11 18
11 29 -18 46 -64 39 -34 -5 -54 -1 -91 16 -26 13 -64 24 -85 25 -21 1 -47 10
-59 20 -14 14 -37 19 -77 20 -31 0 -71 7 -89 15 -24 10 -35 11 -40 3 -4 -7
-31 -11 -67 -9 -50 1 -64 -2 -85 -20 -25 -22 -65 -37 -105 -39 -13 -1 -21 -9
-23 -23 -3 -19 -9 -22 -53 -21 -42 0 -49 3 -49 19 0 18 14 27 64 44 38 12 2
25 -39 14 -29 -8 -40 -8 -43 0 -2 6 -10 11 -18 11 -17 0 -20 -71 -3 -101 7
-15 7 -24 -2 -35 -18 -22 -46 -17 -53 11 -4 14 -12 25 -19 25 -24 0 -92 -22
-107 -35 -26 -22 -116 -46 -144 -39 -19 4 -33 1 -46 -11 -13 -12 -27 -15 -45
-11 -14 4 -25 2 -25 -4 0 -5 -3 -9 -7 -8 -13 3 -53 -13 -53 -22 0 -14 -32 -21
-47 -9 -11 10 -20 6 -42 -15 -36 -34 -86 -43 -134 -22 -35 14 -37 14 -37 -5 0
-10 -4 -19 -10 -19 -5 0 -10 5 -10 11 0 6 -12 9 -28 8 -15 -2 -32 0 -38 4 -17
10 -33 -15 -23 -38 4 -11 8 -14 8 -7 1 6 6 12 12 12 6 0 9 -10 7 -22 -3 -20
-10 -23 -50 -26 -46 -3 -47 -3 -46 27 1 19 5 28 13 24 7 -2 16 0 20 6 5 10 -7
15 -28 12 -4 0 -6 2 -5 6 3 14 -13 53 -22 53 -5 0 -11 -6 -14 -12 -3 -7 -4 0
-3 16 1 19 -4 32 -16 37 -9 5 -25 13 -35 18 -12 6 -19 25 -23 67 -4 32 -12 60
-18 62 -6 2 -8 9 -5 14 4 6 -1 17 -10 24 -16 11 -16 15 -2 42 8 16 13 32 10
35 -3 3 -2 12 2 19 5 7 9 15 10 18 3 21 38 90 45 90 5 0 6 7 2 15 -6 18 23 55
44 55 13 0 12 21 -3 68 -5 18 19 62 50 91 14 13 28 37 32 55 4 18 26 49 54 76
26 25 51 55 55 68 3 12 10 20 14 17 9 -5 105 96 115 121 3 9 12 14 20 11 15
-6 76 51 76 71 0 7 6 12 13 12 6 0 42 29 80 65 47 45 67 71 67 89 0 18 8 27
31 35 17 6 28 15 25 20 -3 4 10 29 29 53 26 34 42 47 69 51 20 3 49 15 65 26
16 12 38 21 50 21 18 0 71 45 71 61 0 4 9 5 19 2 11 -3 28 0 38 6 16 9 16 11
-7 12 -14 1 -30 1 -37 0 -21 -3 -24 17 -3 24 11 4 27 19 35 35 11 21 27 32 58
40 23 6 52 15 65 20 17 8 24 6 28 -5 9 -22 34 -18 34 5 0 12 -6 33 -14 48 -17
33 -2 62 31 62 11 0 26 6 32 14 18 21 51 27 58 10 3 -9 1 -20 -6 -27 -6 -6
-11 -16 -11 -23 0 -23 53 1 70 32 19 33 53 54 91 54 23 0 26 4 25 37 -2 45
-15 51 -46 18 -30 -32 -44 -32 -36 0 5 18 2 25 -9 25 -8 0 -15 9 -15 20 0 17
7 20 45 20 34 0 47 -5 55 -20 12 -22 56 -28 62 -8 3 9 12 9 38 -2 38 -16 114
-14 141 3 15 9 18 19 13 46 -5 22 -3 32 4 28 14 -9 78 19 85 38 4 8 18 15 32
15 14 0 25 5 25 11 0 6 9 9 20 6 11 -3 18 0 17 7 -1 6 10 12 24 14 22 3 28 11
44 67 15 52 22 65 43 70 15 4 28 1 33 -6 6 -10 15 -9 41 4 42 21 40 21 61 -3z
m-3683 -16 c0 -8 -4 -12 -10 -9 -5 3 -10 13 -10 21 0 8 5 12 10 9 6 -3 10 -13
10 -21z m2165 16 c3 -5 -1 -10 -9 -10 -9 0 -16 5 -16 10 0 6 4 10 9 10 6 0 13
-4 16 -10z m-707 -21 c2 -13 -10 -17 -63 -23 -36 -4 -70 -4 -75 -1 -23 14 -6
25 39 25 28 0 53 5 56 11 10 15 39 7 43 -12z m1190 -2 c3 -17 -2 -18 -65 -14
-58 4 -110 11 -121 16 -2 0 0 6 3 11 4 7 41 10 93 8 75 -3 87 -6 90 -21z
m1947 3 c3 -11 12 -20 20 -20 18 0 47 -29 40 -41 -19 -29 -95 16 -95 57 0 29
26 32 35 4z m-3628 -35 c-1 -20 -5 -34 -11 -31 -6 2 -9 10 -7 17 2 8 4 22 5
32 0 9 3 17 7 17 4 0 7 -16 6 -35z m1837 26 c7 -11 -41 -44 -54 -36 -13 8 -1
33 18 38 28 8 31 7 36 -2z m640 -5 c44 8 50 -14 9 -33 -39 -18 -48 -16 -61 12
-16 34 -15 40 2 26 9 -8 28 -10 50 -5z m-169 -15 c-3 -5 -1 -12 5 -16 22 -14
10 -35 -20 -35 -22 0 -30 5 -30 18 0 10 5 23 12 30 14 14 42 16 33 3z m-3378
-28 c-3 -30 -31 -43 -50 -24 -7 7 -2 13 17 21 15 5 24 14 21 20 -3 5 -2 10 4
10 5 0 9 -12 8 -27z m2502 3 c-2 -2 -17 -6 -34 -9 l-30 -6 30 13 c26 12 47 13
34 2z m-769 -11 c0 -8 -7 -15 -15 -15 -16 0 -20 12 -8 23 11 12 23 8 23 -8z
m497 9 c-3 -3 -12 -4 -19 -1 -8 3 -5 6 6 6 11 1 17 -2 13 -5z m-1560 -46 c-3
-8 -6 -5 -6 6 -1 11 2 17 5 13 3 -3 4 -12 1 -19z m53 12 c0 -20 -24 -60 -37
-60 -18 0 -17 26 2 34 8 3 15 12 15 21 0 8 5 15 10 15 6 0 10 -4 10 -10z m420
-16 c0 -17 -12 -18 -28 -2 -18 18 -15 27 8 21 11 -3 20 -12 20 -19z m827 20
c-3 -3 -12 -4 -19 -1 -8 3 -5 6 6 6 11 1 17 -2 13 -5z m2717 0 c9 -3 16 -14
16 -24 0 -17 -36 -57 -45 -49 -4 5 5 79 10 79 2 0 10 -3 19 -6z m-2854 -24 c0
-5 -7 -10 -15 -10 -8 0 -15 5 -15 10 0 6 7 10 15 10 8 0 15 -4 15 -10z m540 6
c0 -11 -19 -15 -25 -6 -3 5 1 10 9 10 9 0 16 -2 16 -4z m-2400 -26 c0 -5 -5
-10 -11 -10 -5 0 -7 5 -4 10 3 6 8 10 11 10 2 0 4 -4 4 -10z m105 -11 c-7 -20
-5 -21 36 -14 l44 7 -36 -35 c-25 -24 -51 -37 -80 -42 -24 -4 -47 -12 -50 -17
-6 -10 -11 -8 -66 20 -13 7 -41 12 -63 12 -45 0 -58 16 -40 49 14 26 30 26 75
0 20 -12 48 -21 62 -21 15 0 34 -10 43 -21 23 -28 40 -14 40 33 0 35 8 47 33
49 5 1 5 -8 2 -20z m4681 -16 c-4 -4 -11 -1 -16 7 -16 25 -11 35 7 17 9 -9 13
-20 9 -24z m-4222 -14 c-6 -10 -44 -12 -44 -3 0 3 5 15 11 26 11 21 12 21 25
3 7 -10 11 -22 8 -26z m376 16 c-23 -25 -60 -34 -60 -15 0 11 49 39 69 40 10
0 7 -8 -9 -25z m-910 5 c0 -5 -7 -10 -16 -10 -8 0 -12 5 -9 10 3 6 10 10 16
10 5 0 9 -4 9 -10z m3329 1 c12 -8 12 -12 2 -25 -7 -9 -17 -13 -22 -10 -5 3
-25 -8 -44 -25 l-34 -30 -52 25 c-28 14 -48 29 -43 34 15 14 74 23 74 11 0
-17 18 -13 40 9 21 21 55 26 79 11z m1491 -7 c0 -17 -22 -14 -28 4 -2 7 3 12
12 12 9 0 16 -7 16 -16z m-4370 -3 c0 -12 -46 -41 -54 -34 -8 9 24 43 41 43 7
0 13 -4 13 -9z m1350 -1 c0 -5 -7 -10 -16 -10 -8 0 -12 5 -9 10 3 6 10 10 16
10 5 0 9 -4 9 -10z m3330 -20 c-19 -12 -50 -13 -50 -2 0 5 10 14 23 19 26 13
50 -2 27 -17z m-362 -1 c-2 -6 -8 -10 -13 -10 -5 0 -11 4 -13 10 -2 6 4 11 13
11 9 0 15 -5 13 -11z m-4438 -7 c0 -5 -6 -16 -13 -27 -10 -13 -16 -15 -21 -6
-4 6 -2 18 4 26 13 16 30 20 30 7z m310 0 c0 -13 -39 -46 -46 -39 -12 12 8 47
27 47 10 0 19 -4 19 -8z m823 -7 c1 -5 -6 -11 -15 -13 -11 -2 -18 3 -18 13 0
17 30 18 33 0z m377 5 c0 -5 -4 -10 -9 -10 -6 0 -13 5 -16 10 -3 6 1 10 9 10
9 0 16 -4 16 -10z m-1350 -10 c0 -5 -4 -10 -10 -10 -5 0 -10 5 -10 10 0 6 5
10 10 10 6 0 10 -4 10 -10z m-590 -27 c0 -5 -4 -14 -9 -21 -9 -16 -77 -13 -74
3 3 17 83 34 83 18z m3034 -24 c-12 -13 -21 -16 -28 -9 -7 7 -4 14 9 24 27 19
40 8 19 -15z m-2550 12 c3 -5 -10 -18 -29 -30 -21 -12 -35 -28 -35 -40 0 -27
-21 -31 -44 -10 -16 15 -17 21 -6 34 7 8 22 15 35 15 12 0 30 9 40 20 20 22
31 25 39 11z m1377 -1 c23 0 6 -18 -21 -22 -19 -3 -30 0 -30 7 0 17 12 26 28
20 7 -3 18 -5 23 -5z m-1501 -16 c0 -8 -4 -12 -10 -9 -5 3 -10 10 -10 16 0 5
5 9 10 9 6 0 10 -7 10 -16z m2128 5 c-2 -6 -22 -17 -43 -25 -50 -17 -55 -17
-55 -1 0 8 17 18 38 24 51 14 64 15 60 2z m-2428 -22 c0 -21 -35 -48 -52 -42
-9 4 -18 0 -21 -8 -3 -8 -22 -18 -42 -21 -20 -4 -43 -10 -51 -13 -20 -7 -18
22 3 47 19 21 62 27 79 10 7 -7 18 -2 34 15 26 27 50 33 50 12z m2594 -54 c-7
-42 -11 -49 -20 -40 -10 9 5 77 17 77 6 0 7 -15 3 -37z m2286 25 c0 -25 -16
-37 -38 -31 -25 6 -27 14 -10 31 16 16 48 15 48 0z m-4820 -4 c0 -3 -5 -15
-11 -26 -9 -16 -13 -18 -20 -7 -4 8 -3 19 3 26 11 13 28 18 28 7z m2640 -43
c0 -12 -20 -25 -27 -18 -7 7 6 27 18 27 5 0 9 -4 9 -9z m-2934 -17 c-10 -26 4
-37 24 -19 14 13 20 13 26 4 4 -7 2 -15 -4 -17 -6 -2 -22 -12 -34 -22 -22 -17
-22 -17 -35 7 -10 19 -10 28 0 44 14 23 32 26 23 3z m514 6 c0 -5 -4 -10 -10
-10 -5 0 -10 5 -10 10 0 6 5 10 10 10 6 0 10 -4 10 -10z m240 0 c0 -5 -4 -10
-10 -10 -5 0 -10 5 -10 10 0 6 5 10 10 10 6 0 10 -4 10 -10z m-500 -28 c0 -13
-58 -72 -71 -72 -7 0 5 18 26 40 41 42 45 45 45 32z m100 -25 c0 -17 -20 -37
-37 -37 -19 0 -16 20 5 36 22 17 32 17 32 1z m2498 -3 c36 -17 34 -27 -12 -77
-14 -15 -26 -32 -26 -37 0 -5 -10 -12 -22 -16 -13 -4 -29 -15 -36 -26 -10 -14
-23 -17 -50 -15 -33 4 -37 7 -37 33 0 21 6 30 20 33 11 2 23 8 26 13 4 7 9 6
13 -1 4 -6 2 -11 -3 -11 -6 0 -11 -7 -11 -15 0 -20 13 -19 52 5 21 13 27 20
16 20 -31 0 -30 21 1 51 17 16 31 31 31 34 0 3 0 10 0 15 0 13 1 13 38 -6z
m137 -24 c-22 -24 -70 -24 -70 0 0 18 66 42 79 29 6 -5 2 -17 -9 -29z m-2504
8 c-1 -5 -1 -19 -1 -33 0 -31 -25 -34 -33 -4 -7 28 2 51 20 47 8 -2 14 -6 14
-10z m5041 -30 c-17 -17 -47 9 -30 29 10 12 13 12 27 -1 11 -12 12 -19 3 -28z
m-5552 12 c0 -5 14 -10 30 -10 30 0 30 0 14 -25 -12 -18 -22 -24 -35 -20 -11
4 -19 2 -19 -4 0 -14 -58 -43 -71 -36 -11 8 -2 46 15 58 6 4 19 5 29 3 12 -3
17 2 17 20 0 13 5 24 10 24 6 0 10 -4 10 -10z m297 -25 c-4 -8 -11 -15 -17
-15 -14 0 -13 27 3 33 16 6 21 1 14 -18z m2467 17 c7 -12 -7 -29 -31 -36 -34
-11 -48 2 -27 25 17 19 49 25 58 11z m2689 -9 c18 -10 39 -23 47 -29 21 -16
116 -13 113 4 -4 17 42 16 56 -2 9 -10 8 -16 -4 -26 -9 -7 -13 -21 -9 -34 6
-25 -26 -62 -33 -38 -6 17 -40 15 -46 -2 -7 -17 17 -41 31 -32 5 3 21 -3 34
-14 14 -11 28 -16 32 -13 3 3 6 1 6 -5 0 -7 7 -12 15 -12 8 0 15 -4 15 -10 0
-5 -4 -10 -9 -10 -5 0 -11 -9 -14 -20 -3 -13 4 -27 22 -43 15 -12 25 -29 23
-36 -3 -10 1 -12 11 -8 9 3 19 2 22 -3 10 -16 -31 -11 -45 4 -6 8 -18 12 -26
9 -8 -3 -17 4 -23 18 -5 13 -23 39 -40 58 -17 19 -31 39 -31 45 -1 16 -32 51
-52 59 -10 3 -18 13 -18 21 0 8 8 20 18 25 15 9 15 10 -5 11 -12 0 -25 5 -28
11 -4 6 -13 8 -20 5 -20 -7 -78 36 -82 62 -4 27 0 27 40 5z m-5363 -40 c-1 -5
-13 -26 -28 -48 -34 -49 -62 -58 -62 -21 0 14 4 26 9 26 4 0 20 11 35 25 27
25 46 32 46 18z m-120 -63 c0 -5 -5 -10 -11 -10 -5 0 -7 5 -4 10 3 6 8 10 11
10 2 0 4 -4 4 -10z m2672 -30 c-18 -8 -21 -15 -16 -35 4 -17 2 -25 -6 -25 -17
0 -39 30 -40 53 0 14 8 17 43 16 35 0 38 -2 19 -9z m-218 -25 c-7 -16 -24 -21
-24 -6 0 8 7 13 27 20 1 1 0 -6 -3 -14z m243 -21 c-3 -3 -12 -4 -19 -1 -8 3
-5 6 6 6 11 1 17 -2 13 -5z m213 -14 c0 -4 -9 -15 -20 -25 -21 -19 -24 -15
-14 22 5 20 34 23 34 3z m2930 -290 c0 -5 -5 -10 -11 -10 -5 0 -7 5 -4 10 3 6
8 10 11 10 2 0 4 -4 4 -10z m-3510 -209 c0 -6 -4 -13 -10 -16 -5 -3 -10 1 -10
9 0 9 5 16 10 16 6 0 10 -4 10 -9z m3650 -81 c0 -5 -7 -10 -16 -10 -8 0 -12 5
-9 10 3 6 10 10 16 10 5 0 9 -4 9 -10z m-2370 -750 c0 -12 -28 -25 -36 -17 -9
9 6 27 22 27 8 0 14 -5 14 -10z m-245 -52 c14 -6 25 -17 25 -23 0 -14 -141
-13 -192 0 -51 13 -29 26 42 24 39 -1 73 1 77 4 9 10 18 9 48 -5z m-212 -28
c-3 -11 -9 -20 -14 -20 -11 0 -11 3 -3 24 9 23 23 20 17 -4z m-43 -16 c0 -8
-9 -14 -20 -14 -19 0 -27 19 -14 33 10 9 34 -4 34 -19z m-420 -103 c0 -12 -21
-19 -37 -13 -22 8 -14 22 12 22 14 0 25 -4 25 -9z m527 -710 c27 -1 32 -6 38
-33 4 -18 14 -41 23 -51 8 -9 16 -33 16 -52 1 -33 3 -35 33 -33 21 1 41 -5 55
-18 43 -38 91 -54 166 -52 81 1 103 -10 98 -50 -3 -27 -40 -148 -57 -187 -4
-11 -13 -46 -18 -78 -6 -32 -17 -72 -25 -90 -18 -38 -98 -308 -112 -377 -3
-14 -9 -34 -14 -45 -4 -11 -13 -51 -20 -90 -29 -170 -65 -266 -159 -419 -52
-86 -76 -109 -100 -97 -10 6 -21 7 -25 3 -4 -3 -11 0 -16 8 -8 12 -10 12 -10
-3 0 -23 -20 -18 -34 9 -17 30 -21 31 -106 27 l-79 -3 6 30 c5 26 3 30 -17 30
-13 0 -24 8 -27 20 -6 23 -23 17 -23 -9 0 -10 -10 -22 -22 -28 -31 -14 -65 2
-73 34 -6 27 -46 46 -80 37 -18 -4 -25 0 -36 25 -9 20 -26 36 -46 43 -18 6
-30 15 -27 20 3 4 -1 8 -8 8 -9 0 -9 3 2 10 13 9 13 12 -4 25 -14 10 -17 21
-12 41 5 20 2 31 -13 45 -27 25 -65 9 -78 -34 -4 -17 -15 -33 -23 -35 -13 -5
-13 -3 -1 12 13 15 13 19 0 27 -12 8 -12 10 0 18 12 8 10 12 -12 22 -15 7 -27
16 -27 21 0 4 -29 8 -65 8 l-65 0 0 35 c0 22 -6 38 -15 41 -17 7 -20 40 -5 49
6 3 10 1 10 -4 0 -6 9 -11 19 -11 11 0 21 -5 23 -12 3 -7 12 -9 22 -5 16 6 17
14 11 55 -10 67 -22 85 -50 78 -17 -4 -32 2 -55 24 -18 17 -43 33 -56 36 -23
6 -34 24 -15 24 5 0 13 10 17 22 5 17 0 27 -20 43 -14 11 -28 35 -32 53 -6 30
-5 32 17 30 25 -3 30 17 14 54 -5 13 4 24 35 45 22 15 59 43 81 61 23 17 47
32 54 32 7 0 26 10 42 23 43 34 65 44 112 52 46 8 77 19 176 65 33 15 110 45
170 65 61 21 112 41 113 46 2 5 11 9 21 9 9 0 35 9 56 21 22 11 64 30 93 41
48 18 53 23 49 44 -5 26 7 33 17 9 4 -13 9 -13 25 -3 24 15 18 28 -14 28 -13
0 -26 4 -30 9 -3 6 -18 6 -36 1 -69 -20 -171 -12 -214 16 -20 13 -29 14 -38 5
-14 -14 -54 -14 -59 1 -6 16 44 67 49 51 3 -7 9 -13 14 -13 8 0 -1 18 -27 58
-1 2 -11 -1 -21 -6 -10 -5 -35 -12 -55 -16 -30 -6 -38 -4 -38 8 0 20 32 36 94
47 160 26 236 38 279 42 27 3 51 7 53 10 2 2 21 3 42 2 20 -1 51 -3 69 -4z
m828 -621 c3 -5 1 -10 -4 -10 -6 0 -11 5 -11 10 0 6 2 10 4 10 3 0 8 -4 11
-10z m-1395 -930 c0 -5 -4 -10 -10 -10 -5 0 -10 5 -10 10 0 6 5 10 10 10 6 0
10 -4 10 -10z m1628 -217 c-2 -10 -13 -18 -26 -19 -25 -1 -24 -2 -16 20 9 23
46 21 42 -1z m705 -291 c-9 -36 -34 -27 -31 11 2 45 8 52 24 29 7 -10 10 -29
7 -40z m67 -17 c0 -8 -7 -15 -15 -15 -8 0 -15 7 -15 15 0 8 7 15 15 15 8 0 15
-7 15 -15z m-236 -661 c3 -8 2 -12 -4 -9 -6 3 -10 10 -10 16 0 14 7 11 14 -7z
m-1018 -279 c18 -14 17 -14 -13 -15 -31 0 -41 9 -26 23 10 10 17 9 39 -8z m53
-89 c20 -21 20 -24 5 -30 -19 -7 -54 19 -54 41 0 21 24 15 49 -11z m-109 -245
c0 -12 -20 -25 -27 -18 -7 7 6 27 18 27 5 0 9 -4 9 -9z m4 -116 c-55 -39 -64
-42 -64 -20 0 9 19 25 43 35 66 30 75 23 21 -15z m286 -120 c10 -12 9 -16 -5
-21 -19 -8 -40 9 -31 25 10 15 21 14 36 -4z m43 -15 c-3 -11 -9 -17 -14 -14
-14 8 -10 34 5 34 9 0 12 -7 9 -20z m-285 -2 c-3 -7 -29 -30 -59 -52 -35 -25
-46 -30 -31 -14 12 13 22 29 22 35 0 13 40 42 58 42 8 1 12 -4 10 -11z m1082
-12 c0 -14 -5 -28 -10 -31 -13 -8 -24 20 -16 40 9 24 26 17 26 -9z m-515 4
c11 -17 -5 -32 -21 -19 -8 6 -14 15 -14 20 0 12 27 11 35 -1z m-541 -67 c-8
-81 -13 -103 -24 -103 -15 0 -12 83 5 124 8 20 17 36 20 36 3 0 3 -26 -1 -57z
m2136 38 c0 -5 -7 -12 -16 -15 -22 -9 -24 -8 -24 9 0 8 9 15 20 15 11 0 20 -4
20 -9z m-2078 -33 c-9 -9 -12 -7 -12 12 0 19 3 21 12 12 9 -9 9 -15 0 -24z
m1047 -33 c0 -5 -6 -1 -14 9 -8 11 -15 24 -15 30 0 5 7 1 15 -10 8 -10 14 -23
14 -29z m330 24 c-7 -14 -14 -18 -21 -11 -13 13 -2 32 18 32 12 0 13 -4 3 -21z
m-1081 -13 c3 -12 -1 -17 -10 -14 -7 3 -15 13 -16 22 -3 12 1 17 10 14 7 -3
15 -13 16 -22z m1022 -38 c0 -4 -4 -8 -10 -8 -5 0 -10 5 -10 10 0 6 -9 10 -20
10 -11 0 -20 7 -20 16 0 13 4 13 30 -3 17 -9 30 -21 30 -25z m-863 -8 c7 -29
7 -40 -1 -40 -12 0 -36 66 -28 75 12 11 18 3 29 -35z m127 -4 c-9 -90 -49
-136 -42 -50 2 41 0 49 -14 46 -11 -2 -15 3 -11 16 3 13 14 18 37 18 31 0 33
-2 30 -30z m59 0 c-3 -41 -19 -53 -33 -27 -14 28 -4 63 18 59 12 -3 16 -13 15
-32z m562 -28 c-25 -57 -35 -68 -35 -36 0 14 7 31 15 38 8 7 15 24 15 38 0 20
3 23 12 14 9 -9 7 -22 -7 -54z m-1327 19 c2 -12 -3 -17 -17 -17 -23 0 -24 1
-15 25 8 19 28 15 32 -8z m208 -14 c-10 -10 -19 5 -10 18 6 11 8 11 12 0 2 -7
1 -15 -2 -18z m1012 0 c2 -9 -7 -13 -27 -13 -19 0 -31 5 -31 14 0 17 52 16 58
-1z m257 -4 c8 -25 3 -31 -19 -23 -20 8 -21 44 -2 44 8 0 18 -9 21 -21z m517
-1 c-7 -7 -12 -8 -12 -2 0 14 12 26 19 19 2 -3 -1 -11 -7 -17z m-443 -38 c0
-9 -4 -8 -9 5 -5 11 -9 27 -9 35 0 9 4 8 9 -5 5 -11 9 -27 9 -35z m-174 0 c-3
-5 -11 -10 -16 -10 -6 0 -7 5 -4 10 3 6 11 10 16 10 6 0 7 -4 4 -10z m545 -21
c0 -5 -12 -9 -27 -9 -27 1 -27 1 -9 15 19 14 36 12 36 -6z m-1290 2 c0 -9 -52
-51 -64 -51 -12 0 -6 24 11 42 17 19 53 25 53 9z m840 -111 c0 -21 -15 -27
-25 -10 -7 12 2 30 16 30 5 0 9 -9 9 -20z m-1260 -50 c0 -13 -38 -32 -51 -25
-6 4 -3 12 8 21 21 16 43 18 43 4z m1099 -56 c-6 -8 -17 -14 -25 -14 -9 0 -7
11 9 41 21 41 22 41 25 15 2 -15 -2 -34 -9 -42z m381 46 c0 -5 -7 -10 -16 -10
-8 0 -12 5 -9 10 3 6 10 10 16 10 5 0 9 -4 9 -10z m-47 -17 c-9 -26 -44 -63
-75 -79 -37 -19 -35 -9 7 37 19 22 35 44 35 49 0 6 9 10 20 10 14 0 18 -5 13
-17z m-107 -170 c-10 -10 -19 5 -10 18 6 11 8 11 12 0 2 -7 1 -15 -2 -18z
m-246 -38 c0 -8 -9 -15 -20 -15 -11 0 -20 7 -20 15 0 8 9 15 20 15 11 0 20 -7
20 -15z m340 -17 c34 -38 37 -48 14 -48 -21 0 -54 38 -54 62 0 25 6 23 40 -14z"/>
<path d="M3740 8850 c0 -5 11 -12 25 -16 14 -3 25 -12 25 -20 0 -15 12 -19 23
-7 11 10 -13 33 -35 33 -10 0 -16 5 -13 10 3 6 -1 10 -9 10 -9 0 -16 -4 -16
-10z"/>
<path d="M3530 8786 c33 -35 35 -36 43 -15 8 23 -4 39 -30 39 -6 0 -20 3 -30
7 -11 4 -5 -7 17 -31z"/>
<path d="M3626 8791 c-3 -5 1 -12 10 -15 8 -3 13 -2 9 3 -3 5 1 12 7 14 8 4 7
6 -4 6 -9 1 -19 -3 -22 -8z"/>
<path d="M3067 8763 c-15 -14 -5 -20 51 -33 31 -7 63 -15 70 -17 24 -10 11 13
-21 35 -32 21 -86 30 -100 15z"/>
<path d="M3450 8743 c-50 -9 -44 -23 9 -23 46 0 52 2 41 15 -7 8 -15 14 -19
14 -3 -1 -17 -4 -31 -6z"/>
<path d="M4202 8733 c2 -9 11 -17 20 -19 14 -2 15 1 5 17 -15 23 -30 25 -25 2z"/>
<path d="M2905 8729 c-15 -24 77 -61 98 -40 6 6 22 11 35 11 13 0 20 4 17 10
-3 6 -24 10 -46 10 -21 0 -39 5 -39 10 0 13 -57 13 -65 -1z"/>
<path d="M3995 8680 c3 -5 8 -10 11 -10 2 0 4 5 4 10 0 6 -5 10 -11 10 -5 0
-7 -4 -4 -10z"/>
<path d="M4050 8644 c0 -9 10 -14 30 -14 17 0 30 2 30 4 0 2 -13 9 -30 15 -24
8 -30 7 -30 -5z"/>
<path d="M2777 8626 c-31 -7 -60 -10 -63 -7 -4 3 -5 -1 -2 -9 2 -8 14 -16 26
-18 12 -2 22 -10 22 -18 0 -8 9 -14 19 -14 11 0 22 -6 24 -12 3 -7 3 4 0 25
-4 29 -2 37 9 37 9 0 21 7 28 15 14 17 14 17 -63 1z"/>
<path d="M4505 8630 c-3 -5 1 -10 10 -10 9 0 13 5 10 10 -3 6 -8 10 -10 10 -2
0 -7 -4 -10 -10z"/>
<path d="M4631 8604 c0 -11 3 -14 6 -6 3 7 2 16 -1 19 -3 4 -6 -2 -5 -13z"/>
<path d="M2850 8574 c0 -8 5 -12 10 -9 6 3 10 10 10 16 0 5 -4 9 -10 9 -5 0
-10 -7 -10 -16z"/>
<path d="M2945 8570 c3 -5 10 -10 16 -10 5 0 9 5 9 10 0 6 -7 10 -16 10 -8 0
-12 -4 -9 -10z"/>
<path d="M4467 8573 c-9 -9 12 -33 29 -33 12 0 12 4 2 20 -14 21 -21 24 -31
13z"/>
<path d="M4755 8571 c-3 -5 -1 -12 5 -16 5 -3 10 1 10 9 0 18 -6 21 -15 7z"/>
<path d="M4950 8541 c0 -5 7 -11 15 -15 8 -3 15 -1 15 3 0 5 -7 11 -15 15 -8
3 -15 1 -15 -3z"/>
<path d="M3420 8520 c0 -5 7 -10 15 -10 8 0 15 5 15 10 0 6 -7 10 -15 10 -8 0
-15 -4 -15 -10z"/>
<path d="M2890 8505 c-10 -12 -10 -15 3 -15 8 0 20 7 27 15 10 12 10 15 -3 15
-8 0 -20 -7 -27 -15z"/>
<path d="M3018 8513 c6 -2 18 -2 25 0 6 3 1 5 -13 5 -14 0 -19 -2 -12 -5z"/>
<path d="M3070 8487 c0 -18 14 -30 24 -20 3 4 28 6 54 5 26 -1 53 2 61 7 11 7
8 9 -10 9 -13 0 -48 3 -76 7 -45 7 -53 5 -53 -8z"/>
<path d="M5020 8491 c0 -5 7 -11 14 -14 10 -4 13 -1 9 9 -6 15 -23 19 -23 5z"/>
<path d="M2707 8474 c-2 -3 -20 -6 -39 -8 -19 -2 -50 -11 -69 -20 -23 -12 -46
-15 -71 -11 -31 6 -38 4 -38 -9 0 -27 48 -39 83 -22 44 21 62 10 30 -20 -15
-14 -23 -30 -19 -39 9 -23 35 -18 48 10 11 26 32 33 43 15 7 -11 85 37 85 52
0 5 7 16 15 25 8 8 13 18 10 23 -5 8 -70 11 -78 4z m33 -49 c-7 -8 -16 -12
-21 -9 -13 8 -1 24 18 24 13 0 13 -3 3 -15z"/>
<path d="M2115 8460 c-8 -13 -1 -24 14 -19 6 3 7 10 2 18 -6 10 -10 10 -16 1z"/>
<path d="M3270 8459 c0 -5 5 -7 10 -4 6 3 10 8 10 11 0 2 -4 4 -10 4 -5 0 -10
-5 -10 -11z"/>
<path d="M5102 8443 c4 -22 24 -27 31 -9 3 8 -2 16 -14 19 -15 4 -19 1 -17
-10z"/>
<path d="M2342 8420 c-16 -27 4 -27 38 0 l25 20 -25 0 c-15 0 -30 -8 -38 -20z"/>
<path d="M3048 8410 c-23 -41 -8 -46 63 -20 59 22 72 47 19 35 -16 -3 -31 -2
-35 4 -11 19 -30 12 -47 -19z"/>
<path d="M3350 8430 c0 -15 38 -32 45 -20 3 5 3 15 0 20 -8 13 -45 13 -45 0z"/>
<path d="M4957 8433 c-4 -3 -7 -11 -7 -17 0 -6 5 -5 12 2 6 6 9 14 7 17 -3 3
-9 2 -12 -2z"/>
<path d="M5202 8418 c20 -29 51 -38 41 -11 -8 21 -22 33 -42 33 -11 0 -11 -4
1 -22z"/>
<path d="M1837 8423 c-4 -3 -7 -11 -7 -17 0 -6 5 -5 12 2 6 6 9 14 7 17 -3 3
-9 2 -12 -2z"/>
<path d="M3470 8409 c0 -5 5 -7 10 -4 6 3 10 8 10 11 0 2 -4 4 -10 4 -5 0 -10
-5 -10 -11z"/>
<path d="M2811 8373 c-17 -21 -31 -41 -31 -45 0 -13 25 -9 46 7 26 20 44 19
45 -2 0 -15 3 -14 16 5 9 13 26 22 40 22 22 0 24 -3 19 -25 -4 -14 -2 -25 3
-25 13 0 32 26 29 41 -2 9 4 13 15 11 10 -2 17 3 17 13 0 13 -9 15 -52 11 -34
-3 -62 1 -80 10 -35 18 -32 20 -67 -23z"/>
<path d="M2470 8375 c-1 -30 -24 -54 -59 -61 -17 -4 -31 -10 -31 -15 0 -17 58
-9 84 12 27 21 32 44 16 69 -8 12 -10 12 -10 -5z"/>
<path d="M3390 8380 c0 -5 12 -10 26 -10 14 0 23 4 19 10 -3 6 -15 10 -26 10
-10 0 -19 -4 -19 -10z"/>
<path d="M2386 8364 c-10 -25 1 -29 14 -5 6 12 7 21 1 21 -5 0 -12 -7 -15 -16z"/>
<path d="M3195 8370 c-3 -5 1 -10 10 -10 9 0 13 5 10 10 -3 6 -8 10 -10 10 -2
0 -7 -4 -10 -10z"/>
<path d="M4090 8363 c0 -14 9 -18 40 -20 59 -2 47 29 -12 36 -21 2 -28 -2 -28
-16z"/>
<path d="M2185 8330 c-24 -26 -11 -39 15 -15 19 18 20 17 20 -6 0 -19 2 -21
10 -9 14 21 12 28 -9 39 -14 8 -23 6 -36 -9z"/>
<path d="M2310 8340 c0 -5 12 -10 28 -10 21 0 24 2 12 10 -20 13 -40 13 -40 0z"/>
<path d="M4505 8340 c3 -5 8 -10 11 -10 2 0 4 5 4 10 0 6 -5 10 -11 10 -5 0
-7 -4 -4 -10z"/>
<path d="M4658 8343 c6 -2 18 -2 25 0 6 3 1 5 -13 5 -14 0 -19 -2 -12 -5z"/>
<path d="M3035 8310 c-3 -5 -2 -10 4 -10 5 0 13 5 16 10 3 6 2 10 -4 10 -5 0
-13 -4 -16 -10z"/>
<path d="M2505 8290 c-3 -5 -1 -10 4 -10 6 0 11 5 11 10 0 6 -2 10 -4 10 -3 0
-8 -4 -11 -10z"/>
<path d="M2823 8293 c-21 -8 -15 -22 7 -16 11 3 20 9 20 14 0 10 -8 10 -27 2z"/>
<path d="M3090 8290 c-14 -4 -37 -5 -51 -3 -15 3 -30 -1 -38 -11 -20 -24 -5
-36 29 -24 23 7 34 7 45 -2 12 -10 16 -9 21 4 4 10 13 15 22 11 17 -6 44 13
36 26 -6 10 -29 10 -64 -1z"/>
<path d="M4260 8290 c0 -5 5 -10 11 -10 5 0 7 5 4 10 -3 6 -8 10 -11 10 -2 0
-4 -4 -4 -10z"/>
<path d="M3370 8250 c32 -25 72 -25 95 0 16 18 16 20 2 20 -10 0 -17 -4 -17
-10 0 -11 -33 -14 -43 -3 -4 3 -19 8 -34 9 l-28 3 25 -19z"/>
<path d="M3800 8259 c0 -5 9 -9 20 -9 11 0 20 4 20 8 0 4 -9 8 -20 9 -11 1
-20 -2 -20 -8z"/>
<path d="M2160 8250 c0 -5 4 -10 9 -10 6 0 13 5 16 10 3 6 -1 10 -9 10 -9 0
-16 -4 -16 -10z"/>
<path d="M3852 8250 c2 -7 18 -18 35 -25 31 -13 32 -13 24 8 -9 23 -67 40 -59
17z"/>
<path d="M4560 8251 c0 -6 9 -15 20 -21 13 -7 20 -7 20 -1 0 6 -9 15 -20 21
-13 7 -20 7 -20 1z"/>
<path d="M4734 8239 c-4 -7 1 -16 10 -21 9 -5 16 -20 16 -34 0 -20 3 -23 17
-16 24 14 25 40 2 63 -22 22 -35 24 -45 8z"/>
<path d="M2102 8224 c4 -21 22 -23 26 -1 2 10 -3 17 -13 17 -10 0 -15 -6 -13
-16z"/>
<path d="M2847 8233 c-39 -4 -42 -22 -4 -24 12 0 17 -3 12 -5 -6 -2 -9 -19 -7
-38 3 -30 1 -35 -28 -45 -23 -8 -31 -15 -26 -27 3 -8 6 -24 6 -33 0 -15 8 -18
58 -15 32 2 63 4 68 5 19 6 84 -23 84 -37 0 -8 5 -14 10 -14 6 0 10 5 10 11 0
16 31 38 52 39 10 0 22 9 28 19 14 27 13 31 -5 25 -8 -4 -23 0 -32 7 -14 12
-15 11 -8 -10 7 -23 6 -24 -30 -18 -47 8 -59 19 -50 46 5 16 12 20 31 15 65
-17 85 2 29 28 -29 13 -36 13 -46 2 -17 -21 -32 -17 -26 6 5 20 -6 25 -41 21
-9 -2 -12 6 -10 21 3 25 -7 28 -75 21z m53 -90 c0 -9 -16 -31 -35 -48 -27 -25
-37 -30 -45 -20 -8 9 -4 17 14 28 13 9 27 26 31 37 8 24 35 27 35 3z"/>
<path d="M1655 8220 c3 -5 12 -7 20 -3 21 7 19 13 -6 13 -11 0 -18 -4 -14 -10z"/>
<path d="M1713 8218 c-36 -12 -38 -15 -23 -38 8 -13 15 -10 40 18 33 34 32 35
-17 20z"/>
<path d="M2445 8219 c-11 -17 1 -21 15 -4 8 9 8 15 2 15 -6 0 -14 -5 -17 -11z"/>
<path d="M2498 8223 c12 -2 30 -2 40 0 9 3 -1 5 -23 4 -22 0 -30 -2 -17 -4z"/>
<path d="M2050 8210 c-12 -8 -10 -10 8 -10 13 0 20 4 17 10 -7 12 -6 12 -25 0z"/>
<path d="M3140 8209 c0 -6 -9 -9 -20 -6 -12 3 -20 0 -20 -8 0 -23 25 -23 60 1
l34 24 -27 0 c-15 0 -27 -5 -27 -11z"/>
<path d="M3570 8204 c0 -9 5 -14 12 -12 18 6 21 28 4 28 -9 0 -16 -7 -16 -16z"/>
<path d="M5300 8212 c0 -13 30 -52 41 -52 15 0 10 26 -9 43 -20 18 -32 22 -32
9z"/>
<path d="M1820 8187 c-22 -11 -25 -19 -22 -56 l3 -44 -31 6 c-22 5 -30 3 -31
-8 -1 -8 -2 -21 -3 -27 -1 -7 -13 -13 -28 -13 -40 0 -34 -19 7 -23 28 -3 35 0
36 15 0 10 3 13 6 6 2 -7 14 -13 26 -13 15 0 18 3 10 11 -8 8 -2 20 23 45 18
19 39 34 45 34 19 0 80 50 74 61 -10 15 -25 10 -49 -16 -18 -20 -28 -23 -51
-17 l-28 8 28 22 c31 24 24 29 -15 9z"/>
<path d="M2188 8188 c-33 -11 -37 -28 -7 -28 25 0 59 17 59 30 0 12 -16 12
-52 -2z"/>
<path d="M3965 8190 c3 -5 14 -10 23 -10 15 0 15 2 2 10 -20 13 -33 13 -25 0z"/>
<path d="M4445 8191 c-2 -5 9 -11 25 -15 20 -4 34 -14 40 -31 10 -27 30 -34
30 -11 0 25 -84 75 -95 57z"/>
<path d="M3153 8158 c2 -7 10 -13 17 -13 7 0 15 6 18 13 2 7 -5 12 -18 12 -13
0 -20 -5 -17 -12z"/>
<path d="M4947 8151 c3 -12 9 -21 14 -21 14 0 11 16 -5 29 -12 10 -13 8 -9 -8z"/>
<path d="M2085 8153 c-39 -8 -130 -58 -148 -80 -10 -13 -27 -23 -38 -23 -10 0
-19 -7 -19 -15 0 -26 45 -17 76 15 31 32 101 72 147 83 15 4 27 12 27 17 0 10
-10 11 -45 3z"/>
<path d="M3296 8152 c-3 -5 9 -12 27 -15 50 -7 54 6 6 18 -15 4 -30 2 -33 -3z"/>
<path d="M4240 8146 c0 -8 15 -17 36 -21 24 -4 38 -13 41 -26 6 -20 20 -24 41
-10 10 6 7 12 -12 24 -14 10 -29 17 -34 17 -5 0 -15 7 -22 15 -16 19 -50 20
-50 1z"/>
<path d="M3216 8141 c-4 -7 -5 -15 -2 -18 9 -9 19 4 14 18 -4 11 -6 11 -12 0z"/>
<path d="M3795 8140 c3 -5 10 -10 16 -10 5 0 9 5 9 10 0 6 -7 10 -16 10 -8 0
-12 -4 -9 -10z"/>
<path d="M3550 8110 c0 -5 9 -10 21 -10 11 0 17 5 14 10 -3 6 -13 10 -21 10
-8 0 -14 -4 -14 -10z"/>
<path d="M2567 8034 c-37 -20 -32 -23 26 -17 30 4 47 10 47 19 0 18 -38 17
-73 -2z"/>
<path d="M3248 8033 c7 -3 16 -2 19 1 4 3 -2 6 -13 5 -11 0 -14 -3 -6 -6z"/>
<path d="M3426 8023 c-3 -4 15 -15 41 -25 54 -20 77 -23 68 -8 -4 6 -12 10
-18 9 -11 -2 -58 14 -77 26 -4 2 -10 1 -14 -2z"/>
<path d="M5550 8010 c0 -5 12 -10 28 -10 21 0 24 2 12 10 -20 13 -40 13 -40 0z"/>
<path d="M1628 7961 c-41 -8 -73 -27 -126 -75 -20 -19 -47 -36 -59 -40 -21 -7
-39 -34 -28 -44 2 -3 24 3 48 12 23 9 64 16 90 16 52 0 136 17 152 31 5 5 -2
9 -19 9 -22 0 -27 4 -24 22 2 12 16 29 32 38 63 35 31 49 -66 31z m-8 -63 c25
-27 26 -37 3 -33 -74 15 -74 15 -63 35 14 26 34 25 60 -2z"/>
<path d="M1326 7951 c-17 -7 -16 -9 10 -29 l29 -21 -35 -1 c-20 0 -41 5 -46
10 -7 7 -17 4 -31 -9 -11 -10 -29 -21 -39 -24 -16 -4 -17 -5 -1 -6 17 -1 25
-21 7 -21 -5 0 -7 -7 -3 -16 4 -12 16 -14 62 -8 59 7 96 27 104 57 3 9 14 17
25 17 34 0 52 11 52 31 0 22 -25 26 -33 5 -7 -19 -47 -28 -47 -10 0 19 -31 33
-54 25z"/>
<path d="M3016 7931 c-4 -5 3 -7 14 -4 23 6 26 13 6 13 -8 0 -17 -4 -20 -9z"/>
<path d="M3169 7899 c16 -6 28 -6 35 1 7 7 -1 10 -24 9 -33 0 -34 -1 -11 -10z"/>
<path d="M3055 7870 c-4 -6 7 -10 25 -10 18 0 29 4 25 10 -3 6 -15 10 -25 10
-10 0 -22 -4 -25 -10z"/>
<path d="M1446 7770 c-28 -18 -28 -20 -10 -26 10 -4 22 -13 27 -20 19 -32 53
17 35 50 -11 20 -15 19 -52 -4z"/>
<path d="M2977 7773 c-4 -3 -7 -11 -7 -17 0 -6 5 -5 12 2 6 6 9 14 7 17 -3 3
-9 2 -12 -2z"/>
<path d="M3021 7758 c-18 -6 -21 -11 -12 -22 9 -11 9 -15 -1 -19 -7 -3 1 -6
19 -6 17 -1 35 -5 38 -11 8 -13 25 -13 25 0 0 6 -13 13 -29 16 -17 4 -32 12
-34 19 -4 8 2 10 18 7 12 -2 25 1 29 6 8 14 -25 21 -53 10z"/>
<path d="M1415 7720 c-3 -5 -1 -10 4 -10 6 0 11 5 11 10 0 6 -2 10 -4 10 -3 0
-8 -4 -11 -10z"/>
<path d="M1220 7538 c-11 -12 -18 -23 -16 -26 8 -8 46 19 46 33 0 20 -6 19
-30 -7z"/>
<path d="M4525 7500 c-3 -5 3 -10 14 -10 11 0 23 5 26 10 3 6 -3 10 -14 10
-11 0 -23 -4 -26 -10z"/>
<path d="M4230 7330 c0 -5 7 -7 15 -4 8 4 15 8 15 10 0 2 -7 4 -15 4 -8 0 -15
-4 -15 -10z"/>
<path d="M4144 7309 c-2 -4 1 -9 8 -11 18 -6 68 3 68 13 0 11 -69 8 -76 -2z"/>
<path d="M5831 7234 c0 -11 3 -14 6 -6 3 7 2 16 -1 19 -3 4 -6 -2 -5 -13z"/>
<path d="M4020 7220 c0 -5 4 -10 9 -10 6 0 13 5 16 10 3 6 -1 10 -9 10 -9 0
-16 -4 -16 -10z"/>
<path d="M3853 7163 c-14 -5 -18 -33 -5 -33 10 0 32 22 32 32 0 9 -8 9 -27 1z"/>
<path d="M5904 7141 c4 -19 8 -36 9 -38 2 -1 34 -14 71 -27 38 -14 74 -33 82
-43 17 -22 18 -10 2 17 -7 10 -9 22 -5 26 10 10 57 -17 57 -32 0 -12 37 -30
46 -22 7 8 -51 56 -99 82 -27 14 -65 28 -85 32 -21 4 -43 11 -49 17 -7 5 -13
6 -13 1 0 -5 -5 -2 -11 6 -8 11 -9 7 -5 -19z"/>
<path d="M5966 7051 c-8 -13 35 -91 56 -102 9 -5 30 -32 45 -59 21 -37 34 -50
51 -50 12 0 22 2 22 5 0 14 -40 46 -49 40 -6 -3 -11 -1 -11 5 0 22 30 21 66
-1 l37 -23 -6 33 c-4 19 -7 38 -7 43 0 5 -9 4 -19 -2 -27 -14 -83 -1 -89 22
-2 10 -18 22 -35 26 -33 8 -49 32 -23 32 22 0 20 17 -3 30 -24 12 -28 12 -35
1z"/>
<path d="M3685 7009 c-10 -15 3 -25 16 -12 7 7 7 13 1 17 -6 3 -14 1 -17 -5z"/>
<path d="M6161 6984 c0 -11 3 -14 6 -6 3 7 2 16 -1 19 -3 4 -6 -2 -5 -13z"/>
<path d="M6238 6878 c2 -10 8 -18 12 -18 5 0 12 -24 17 -52 9 -55 26 -68 46
-36 16 24 -28 115 -58 120 -18 4 -21 1 -17 -14z"/>
<path d="M6181 6836 c-10 -11 -9 -19 1 -35 7 -12 16 -21 20 -21 7 0 41 31 36
34 -2 1 -12 9 -24 19 -18 15 -23 16 -33 3z"/>
<path d="M6442 6428 c19 -28 34 -33 42 -13 9 24 -1 35 -31 35 -24 0 -25 -1
-11 -22z"/>
<path d="M6490 6372 c0 -13 35 -42 50 -42 9 0 5 9 -10 25 -24 25 -40 32 -40
17z"/>
<path d="M6565 6140 c3 -5 13 -10 21 -10 8 0 14 5 14 10 0 6 -9 10 -21 10 -11
0 -17 -4 -14 -10z"/>
<path d="M5570 5728 c-30 -5 -80 -7 -111 -4 -35 3 -60 1 -67 -6 -6 -6 -43 -12
-82 -12 -60 -1 -70 -4 -70 -18 0 -10 -5 -18 -11 -18 -6 0 -25 -10 -42 -22 -18
-13 -34 -22 -37 -21 -3 1 -4 -6 -2 -16 4 -26 -16 -72 -30 -69 -7 2 -14 -8 -16
-22 -2 -14 -8 -30 -14 -37 -5 -7 -7 -17 -4 -22 4 -6 9 -68 11 -138 6 -198 22
-314 44 -321 6 -2 11 -12 11 -23 0 -16 4 -18 18 -10 10 5 42 6 72 3 47 -6 55
-10 60 -32 6 -24 9 -25 80 -23 43 2 76 7 81 14 4 7 16 9 28 6 12 -3 24 -1 27
4 3 5 23 6 45 3 39 -7 49 2 28 23 -20 20 1 36 38 30 23 -4 33 -2 31 6 -5 22
45 67 81 73 20 4 44 13 53 21 14 13 21 13 47 2 28 -12 31 -19 31 -56 0 -24 5
-43 10 -43 6 0 10 -6 10 -13 0 -24 21 -37 42 -26 14 7 27 6 50 -5 39 -20 108
-21 134 -1 29 22 101 19 135 -6 16 -11 45 -22 64 -23 20 -2 44 -11 55 -21 15
-14 23 -16 32 -7 14 14 3 43 -14 37 -7 -3 -19 4 -26 15 -10 17 -10 20 4 20 9
0 23 -8 30 -17 7 -10 16 -15 19 -11 10 9 -32 98 -45 98 -6 0 -9 3 -8 8 7 31
-58 154 -78 147 -7 -2 -26 10 -42 26 -31 31 -107 65 -173 78 -19 4 -42 12 -49
16 -8 5 -32 10 -54 11 -21 2 -44 8 -49 13 -6 6 -37 11 -69 11 -32 0 -58 4 -58
10 0 6 7 10 16 10 12 0 15 7 12 30 -4 24 -1 30 13 30 10 0 24 6 31 13 7 7 21
16 31 20 11 4 21 16 24 27 3 11 9 18 13 15 4 -3 21 0 38 6 24 8 37 7 61 -5 38
-20 71 -21 71 -1 0 9 7 18 15 21 19 8 19 28 1 44 -8 6 -16 24 -18 38 -2 21 -8
27 -28 27 -14 0 -31 4 -37 8 -19 12 -35 -2 -28 -24 5 -16 1 -19 -24 -19 -17 0
-31 5 -31 10 0 6 8 10 17 10 16 0 16 2 2 15 -9 9 -38 17 -72 19 -31 1 -60 6
-64 9 -3 4 -21 7 -40 7 -29 0 -33 3 -33 25 0 22 -4 25 -34 25 -19 0 -38 5 -41
10 -7 12 -39 11 -115 -2z m110 -43 c-7 -8 -23 -15 -36 -15 -13 0 -24 -4 -24
-10 0 -10 54 -21 85 -17 12 1 21 -5 23 -17 4 -17 -1 -19 -52 -13 -36 3 -63 13
-77 26 -13 12 -34 21 -47 21 -14 0 -22 5 -19 13 2 8 27 12 70 13 37 0 70 4 74
7 13 13 15 7 3 -8z m225 -185 c3 -5 -1 -10 -10 -10 -9 0 -13 5 -10 10 3 6 8
10 10 10 2 0 7 -4 10 -10z"/>
<path d="M3610 5620 c0 -5 5 -10 10 -10 6 0 10 5 10 10 0 6 -4 10 -10 10 -5 0
-10 -4 -10 -10z"/>
<path d="M6158 5523 c7 -3 16 -2 19 1 4 3 -2 6 -13 5 -11 0 -14 -3 -6 -6z"/>
<path d="M5707 4694 c-15 -16 -5 -24 28 -24 19 0 35 5 35 10 0 6 -6 10 -14 10
-8 0 -21 2 -28 5 -8 3 -17 2 -21 -1z"/>
<path d="M5345 3810 c-3 -5 -1 -10 4 -10 6 0 11 5 11 10 0 6 -2 10 -4 10 -3 0
-8 -4 -11 -10z"/>
<path d="M5197 3204 c-4 -4 -7 -23 -6 -43 l1 -36 9 33 c11 36 9 58 -4 46z"/>
<path d="M5251 3164 c0 -11 3 -14 6 -6 3 7 2 16 -1 19 -3 4 -6 -2 -5 -13z"/>
<path d="M5405 2824 c24 -17 75 -20 58 -3 -7 7 -27 13 -45 14 -30 3 -31 2 -13
-11z"/>
<path d="M6015 2740 c-3 -5 -1 -10 4 -10 6 0 11 5 11 10 0 6 -2 10 -4 10 -3 0
-8 -4 -11 -10z"/>
<path d="M6170 2500 c0 -5 7 -10 15 -10 8 0 15 5 15 10 0 6 -7 10 -15 10 -8 0
-15 -4 -15 -10z"/>
<path d="M6155 2470 c-3 -5 -1 -10 4 -10 6 0 11 5 11 10 0 6 -2 10 -4 10 -3 0
-8 -4 -11 -10z"/>
<path d="M6138 2392 c-29 -17 -32 -37 -7 -37 8 0 18 -10 24 -22 13 -31 23 -29
39 10 11 28 11 34 -2 50 -18 20 -19 20 -54 -1z"/>
<path d="M5168 2303 c7 -3 16 -2 19 1 4 3 -2 6 -13 5 -11 0 -14 -3 -6 -6z"/>
<path d="M6180 2282 c0 -5 7 -15 15 -22 8 -7 15 -8 15 -2 0 5 -7 15 -15 22 -8
7 -15 8 -15 2z"/>
<path d="M6630 1540 c0 -5 5 -10 10 -10 6 0 10 5 10 10 0 6 -4 10 -10 10 -5 0
-10 -4 -10 -10z"/>
<path d="M6511 1406 c-9 -11 -8 -15 5 -20 22 -8 24 -8 24 8 0 21 -16 28 -29
12z"/>
<path d="M6381 1353 c7 -10 14 -20 16 -22 1 -1 7 0 13 4 14 9 -6 35 -27 35
-13 0 -13 -3 -2 -17z"/>
<path d="M4822 1351 c2 -7 7 -12 11 -12 12 1 9 15 -3 20 -7 2 -11 -2 -8 -8z"/>
<path d="M6450 1305 c0 -8 7 -15 15 -15 9 0 12 6 9 15 -4 8 -10 15 -15 15 -5
0 -9 -7 -9 -15z"/>
<path d="M5090 1260 c0 -5 5 -10 10 -10 6 0 10 5 10 10 0 6 -4 10 -10 10 -5 0
-10 -4 -10 -10z"/>
<path d="M5395 1241 c5 -25 3 -30 -17 -33 -13 -2 -31 1 -40 6 -12 8 -21 7 -30
-2 -10 -10 -9 -19 6 -47 24 -44 53 -75 71 -75 11 0 13 9 9 43 -6 39 -4 44 20
55 29 13 31 20 14 57 -16 36 -41 33 -33 -4z m-35 -82 c0 -5 -7 -9 -15 -9 -9 0
-12 6 -9 15 6 15 24 11 24 -6z"/>
<path d="M5880 1261 c0 -7 10 -25 21 -39 l21 -27 -7 25 c-9 30 -35 61 -35 41z"/>
<path d="M6168 1219 c19 -17 36 -28 39 -25 9 8 -17 36 -33 36 -8 0 -14 5 -14
10 0 6 -6 10 -12 10 -7 0 2 -14 20 -31z"/>
<path d="M5990 1145 c0 -9 9 -15 21 -15 18 0 19 2 9 15 -7 8 -16 15 -21 15 -5
0 -9 -7 -9 -15z"/>
<path d="M6073 1089 c-7 -10 -6 -22 6 -43 21 -37 37 -43 44 -16 7 29 -34 78
-50 59z"/>
<path d="M6160 1089 c0 -14 25 -39 39 -39 17 0 13 21 -6 36 -22 16 -33 17 -33
3z"/>
<path d="M6150 1009 c0 -5 4 -9 9 -9 5 0 16 -3 25 -6 9 -3 16 -2 16 4 0 5 -11
12 -25 14 -14 3 -25 1 -25 -3z"/>
<path d="M6110 977 c0 -21 6 -30 20 -34 11 -3 20 -14 20 -24 0 -13 7 -19 23
-19 28 0 57 29 57 55 0 18 -1 18 -16 4 -14 -15 -19 -14 -52 2 -19 10 -39 24
-44 31 -5 8 -8 3 -8 -15z"/>
<path d="M3598 4663 c7 -3 16 -2 19 1 4 3 -2 6 -13 5 -11 0 -14 -3 -6 -6z"/>
<path d="M2891 3780 c-7 -4 -12 -13 -10 -19 3 -8 10 -8 23 2 21 15 9 31 -13
17z"/>
<path d="M3601 3174 c0 -11 3 -14 6 -6 3 7 2 16 -1 19 -3 4 -6 -2 -5 -13z"/>
<path d="M6446 942 c-2 -4 -1 -14 5 -22 7 -12 9 -10 9 8 0 23 -5 28 -14 14z"/>
<path d="M6395 860 c-3 -5 -1 -10 4 -10 6 0 11 5 11 10 0 6 -2 10 -4 10 -3 0
-8 -4 -11 -10z"/>
</g>
</svg>
